<svg width="300" height="300" xmlns="http://www.w3.org/2000/svg">
 <style type="text/css">.st2{fill:#333;}</style>

 <g>
  <title>background</title>
  <rect fill="none" id="canvas_background" height="302" width="302" y="-1" x="-1"/>
 </g>
 <g>
  <title>Layer 1</title>
  <g id="XMLID_4_">
   <path d="m250.81498,185.762507l-16.1,38.9c-0.6,1.4 -1.7,2.5 -3.1,3.1l-53.4,22.1c-0.1,0.2 -0.2,0.4 -0.4,0.6l-16,20.2c-2.3,2.9 -6.6,2.9 -8.9,0l-16.2,-20.2c-0.1,-0.1 -0.1,-0.1 -0.1,-0.2l-54.4,-22.5c-1.4,-0.6 -2.5,-1.7 -3.1,-3.1l-30,-72.6c-0.6,-1.4 -0.6,-2.9 0,-4.3l30.1,-72.5c0.6,-1.4 1.7,-2.5 3.1,-3.1l54.4,-22.5c0,0 0,0 0,0l16.3,-20.4c2.3,-2.8 6.5,-2.8 8.8,0l16.3,20.4c0.1,0.2 0.2,0.3 0.3,0.5l53.3,22.1c1.4,0.6 2.5,1.7 3.1,3.1l16.1,38.9c1.5,3.7 -1.2,7.8 -5.2,7.8l-30.2,0c-2.3,0 -4.3,-1.4 -5.2,-3.5l-5.5,-13.2c-0.6,-1.4 -1.7,-2.5 -3.1,-3.1l-42.6,-17.6c-1.4,-0.6 -2.9,-0.6 -4.3,0l-42.6,17.6c-1.4,0.6 -2.5,1.7 -3.1,3.1l-17.6,42.6c-0.6,1.4 -0.6,2.9 0,4.3l17.6,42.6c0.6,1.4 1.7,2.5 3.1,3.1l42.6,17.4c1.4,0.6 2.9,0.6 4.3,0l42.6,-17.6c1.4,-0.6 2.5,-1.7 3.1,-3.1l5.5,-13.2c0.9,-2.1 2.9,-3.5 5.2,-3.5l30.2,0c3.9,0 6.7,4.1 5.1,7.8z" class="st2" id="XMLID_1_"/>
  </g>
 </g>
</svg>
